<svg width="48" height="48" viewBox="0 0 48 48" fill="none" xmlns="http://www.w3.org/2000/svg">
<g id="Frame" clip-path="url(#clip0_39_364)">
<g id="Mask group">
<mask id="mask0_39_364" style="mask-type:luminance" maskUnits="userSpaceOnUse" x="0" y="0" width="48" height="48">
<g id="Group">
<path id="Vector" d="M48 24C48 10.7452 37.2548 0 24 0C10.7452 0 0 10.7452 0 24C0 37.2548 10.7452 48 24 48C37.2548 48 48 37.2548 48 24Z" fill="white"/>
</g>
</mask>
<g mask="url(#mask0_39_364)">
<g id="Group_2">
<path id="Vector_2" d="M48 0H0V48H48V0Z" fill="#FF005B"/>
<path id="Vector_3" d="M43.4165 20.5598C35.6255 9.83639 20.6166 7.45921 9.89321 15.2502C-0.830172 23.0412 -3.20734 38.0501 4.58365 48.7735C12.3747 59.4969 27.3835 61.874 38.1069 54.083C48.8303 46.292 51.2075 31.2832 43.4165 20.5598Z" fill="#FFB238"/>
<g id="Group_3">
<path id="Vector_4" d="M12.1453 30.1984C11.9939 31.3682 12.5377 32.5695 13.657 33.538C14.7763 34.5065 16.3795 35.1629 18.1139 35.3627C19.8482 35.5626 21.5717 35.2895 22.9051 34.6037C24.2385 33.9178 25.0727 32.8752 25.2241 31.7054" fill="black"/>
<path id="Vector_5" d="M10.2351 24.7965C10.3223 24.094 9.97561 23.4673 9.46059 23.3967C8.94558 23.3261 8.45731 23.8384 8.37002 24.541C8.28273 25.2435 8.62947 25.8703 9.14449 25.9408C9.6595 26.0114 10.1478 25.4991 10.2351 24.7965Z" fill="black"/>
<path id="Vector_6" d="M28.8564 26.0987C28.9437 25.3961 28.5969 24.7694 28.0819 24.6988C27.5669 24.6283 27.0787 25.1406 26.9914 25.8431C26.9041 26.5457 27.2508 27.1724 27.7658 27.243C28.2808 27.3135 28.7691 26.8012 28.8564 26.0987Z" fill="black"/>
</g>
</g>
</g>
</g>
</g>
<defs>
<clipPath id="clip0_39_364">
<rect width="48" height="48" fill="white"/>
</clipPath>
</defs>
</svg>
