<svg width="64" height="64" viewBox="0 0 64 64" fill="none" xmlns="http://www.w3.org/2000/svg">
<g id="logo">
<g id="Ellipse 1">
<mask id="path-1-inside-1_166_91" fill="white">
<path d="M32 64C25.9635 64 20.0502 62.2926 14.9428 59.0749C9.83538 55.8573 5.74226 51.2606 3.13608 45.8157C0.529887 40.3708 -0.483066 34.2998 0.214186 28.3038C0.911438 22.3077 3.29046 16.6312 7.07652 11.9296C10.8626 7.22807 15.9013 3.69329 21.6107 1.73346C27.3202 -0.226361 33.4676 -0.531295 39.343 0.853876C45.2183 2.23905 50.5821 5.25782 54.8149 9.56161C59.0476 13.8654 61.9768 19.2786 63.264 25.1763L58.3493 26.2489C57.2644 21.2784 54.7958 16.7161 51.2284 13.0889C47.661 9.46166 43.1404 6.91743 38.1886 5.75001C33.2369 4.58259 28.0559 4.83959 23.2439 6.49133C18.432 8.14307 14.1854 11.1222 10.9945 15.0847C7.80356 19.0471 5.79852 23.8313 5.21088 28.8848C4.62323 33.9383 5.47695 39.0549 7.67345 43.6439C9.86995 48.2328 13.3196 52.1069 17.6242 54.8188C21.9287 57.5306 26.9125 58.9696 32 58.9696V64Z"/>
</mask>
<path d="M32 64C25.9635 64 20.0502 62.2926 14.9428 59.0749C9.83538 55.8573 5.74226 51.2606 3.13608 45.8157C0.529887 40.3708 -0.483066 34.2998 0.214186 28.3038C0.911438 22.3077 3.29046 16.6312 7.07652 11.9296C10.8626 7.22807 15.9013 3.69329 21.6107 1.73346C27.3202 -0.226361 33.4676 -0.531295 39.343 0.853876C45.2183 2.23905 50.5821 5.25782 54.8149 9.56161C59.0476 13.8654 61.9768 19.2786 63.264 25.1763L58.3493 26.2489C57.2644 21.2784 54.7958 16.7161 51.2284 13.0889C47.661 9.46166 43.1404 6.91743 38.1886 5.75001C33.2369 4.58259 28.0559 4.83959 23.2439 6.49133C18.432 8.14307 14.1854 11.1222 10.9945 15.0847C7.80356 19.0471 5.79852 23.8313 5.21088 28.8848C4.62323 33.9383 5.47695 39.0549 7.67345 43.6439C9.86995 48.2328 13.3196 52.1069 17.6242 54.8188C21.9287 57.5306 26.9125 58.9696 32 58.9696V64Z" fill="#00A7E1" stroke="#00A7E1" stroke-width="2" mask="url(#path-1-inside-1_166_91)"/>
</g>
<g id="Group 1">
<g id="Ellipse 1_2">
<mask id="path-2-inside-2_166_91" fill="white">
<path d="M30.4609 45.0576C28.1226 45.0576 25.8333 44.3776 23.8638 43.0979C21.8944 41.8183 20.3271 39.9926 19.3476 37.837C18.3681 35.6813 18.0173 33.2859 18.3366 30.9341C18.656 28.5823 19.6322 26.3727 21.1498 24.5666C22.6674 22.7605 24.6627 21.4336 26.8998 20.7428C29.1369 20.0521 31.522 20.0264 33.773 20.6689C36.024 21.3113 38.0466 22.595 39.6015 24.3681C41.1564 26.1411 42.1786 28.3292 42.547 30.6736L38.6608 31.3031C38.4108 29.7126 37.7174 28.228 36.6624 27.0251C35.6075 25.8221 34.2352 24.9512 32.708 24.5153C31.1808 24.0794 29.5626 24.0968 28.0448 24.5655C26.5271 25.0341 25.1733 25.9344 24.1437 27.1598C23.1141 28.3851 22.4518 29.8843 22.2351 31.4798C22.0184 33.0754 22.2564 34.7006 22.921 36.1632C23.5855 37.6257 24.6488 38.8643 25.9851 39.7325C27.3213 40.6007 28.8745 41.0621 30.4609 41.0621L30.4609 45.0576Z"/>
</mask>
<path d="M30.4609 45.0576C28.1226 45.0576 25.8333 44.3776 23.8638 43.0979C21.8944 41.8183 20.3271 39.9926 19.3476 37.837C18.3681 35.6813 18.0173 33.2859 18.3366 30.9341C18.656 28.5823 19.6322 26.3727 21.1498 24.5666C22.6674 22.7605 24.6627 21.4336 26.8998 20.7428C29.1369 20.0521 31.522 20.0264 33.773 20.6689C36.024 21.3113 38.0466 22.595 39.6015 24.3681C41.1564 26.1411 42.1786 28.3292 42.547 30.6736L38.6608 31.3031C38.4108 29.7126 37.7174 28.228 36.6624 27.0251C35.6075 25.8221 34.2352 24.9512 32.708 24.5153C31.1808 24.0794 29.5626 24.0968 28.0448 24.5655C26.5271 25.0341 25.1733 25.9344 24.1437 27.1598C23.1141 28.3851 22.4518 29.8843 22.2351 31.4798C22.0184 33.0754 22.2564 34.7006 22.921 36.1632C23.5855 37.6257 24.6488 38.8643 25.9851 39.7325C27.3213 40.6007 28.8745 41.0621 30.4609 41.0621L30.4609 45.0576Z" fill="#00A7E1" stroke="#00A7E1" stroke-width="2" mask="url(#path-2-inside-2_166_91)"/>
</g>
<path id="Rectangle 1" d="M30.4891 41.5671H59.6882L58.7208 44.5577H30.4891V41.5671Z" fill="#00A7E1" stroke="#00A7E1"/>
</g>
<path id="Rectangle 2" d="M32.078 59.4487H45.8544L42.9873 63.5L32.078 63.5V59.4487Z" fill="#00A7E1" stroke="#00A7E1"/>
<g id="Group 2">
<g id="Ellipse 1_3">
<mask id="path-5-inside-3_166_91" fill="white">
<path d="M30.7053 55.1208C26.6335 55.1208 22.6457 53.9001 19.207 51.6012C15.7684 49.3022 13.0207 46.0198 11.2846 42.1369C9.54839 38.2539 8.89533 33.9306 9.40157 29.6712C9.90781 25.4117 11.5525 21.3919 14.1437 18.0806C16.7349 14.7693 20.1658 12.3031 24.0361 10.9697C27.9065 9.63625 32.0567 9.49062 36.0026 10.5497C39.9485 11.6089 43.5274 13.8291 46.3217 16.9514C49.116 20.0737 51.0106 23.9694 51.7844 28.1839L47.2057 29.1182C46.6 25.8192 45.117 22.7697 42.9296 20.3256C40.7423 17.8815 37.9408 16.1435 34.852 15.3144C31.7632 14.4854 28.5144 14.5994 25.4848 15.6431C22.4551 16.6869 19.7694 18.6174 17.7411 21.2095C15.7127 23.8015 14.4253 26.9482 14.029 30.2824C13.6327 33.6167 14.1439 37.0009 15.503 40.0405C16.862 43.08 19.0129 45.6494 21.7046 47.449C24.3963 49.2486 27.518 50.2041 30.7053 50.2041V55.1208Z"/>
</mask>
<path d="M30.7053 55.1208C26.6335 55.1208 22.6457 53.9001 19.207 51.6012C15.7684 49.3022 13.0207 46.0198 11.2846 42.1369C9.54839 38.2539 8.89533 33.9306 9.40157 29.6712C9.90781 25.4117 11.5525 21.3919 14.1437 18.0806C16.7349 14.7693 20.1658 12.3031 24.0361 10.9697C27.9065 9.63625 32.0567 9.49062 36.0026 10.5497C39.9485 11.6089 43.5274 13.8291 46.3217 16.9514C49.116 20.0737 51.0106 23.9694 51.7844 28.1839L47.2057 29.1182C46.6 25.8192 45.117 22.7697 42.9296 20.3256C40.7423 17.8815 37.9408 16.1435 34.852 15.3144C31.7632 14.4854 28.5144 14.5994 25.4848 15.6431C22.4551 16.6869 19.7694 18.6174 17.7411 21.2095C15.7127 23.8015 14.4253 26.9482 14.029 30.2824C13.6327 33.6167 14.1439 37.0009 15.503 40.0405C16.862 43.08 19.0129 45.6494 21.7046 47.449C24.3963 49.2486 27.518 50.2041 30.7053 50.2041V55.1208Z" fill="#00A7E1" stroke="#00A7E1" stroke-width="2" mask="url(#path-5-inside-3_166_91)"/>
</g>
<path id="Rectangle 1_2" d="M31.1843 50.71H54.9901L51.9868 54.6097H31.1843V50.71Z" fill="#00A7E1" stroke="#00A7E1"/>
</g>
</g>
</svg>
